<?xml version="1.0" encoding="UTF-8" standalone="no"?>
<!-- Created with Inkscape (http://www.inkscape.org/) -->

<svg
   xmlns:dc="http://purl.org/dc/elements/1.1/"
   xmlns:cc="http://creativecommons.org/ns#"
   xmlns:rdf="http://www.w3.org/1999/02/22-rdf-syntax-ns#"
   xmlns:svg="http://www.w3.org/2000/svg"
   xmlns="http://www.w3.org/2000/svg"
   xmlns:sodipodi="http://sodipodi.sourceforge.net/DTD/sodipodi-0.dtd"
   xmlns:inkscape="http://www.inkscape.org/namespaces/inkscape"
   width="235.98131"
   height="24.17164"
   viewBox="0 0 62.436721 6.3954131"
   version="1.1"
   id="svg1256"
   inkscape:version="0.92.0 r15299"
   sodipodi:docname="samsung fire marin insurance.svg">
  <defs
     id="defs1250">
    <clipPath
       id="clipPath813"
       clipPathUnits="userSpaceOnUse">
      <path
         inkscape:connector-curvature="0"
         id="path811"
         d="M 0,0 H 595.276 V 841.89 H 0 Z" />
    </clipPath>
    <clipPath
       id="clipPath831"
       clipPathUnits="userSpaceOnUse">
      <path
         inkscape:connector-curvature="0"
         id="path829"
         d="M 0,0 H 595.276 V 841.89 H 0 Z" />
    </clipPath>
    <clipPath
       id="clipPath859"
       clipPathUnits="userSpaceOnUse">
      <path
         inkscape:connector-curvature="0"
         id="path857"
         d="M 0,0 H 595.276 V 841.89 H 0 Z" />
    </clipPath>
    <clipPath
       id="clipPath875"
       clipPathUnits="userSpaceOnUse">
      <path
         inkscape:connector-curvature="0"
         id="path873"
         d="M 0,0 H 595.276 V 841.89 H 0 Z" />
    </clipPath>
    <clipPath
       id="clipPath895"
       clipPathUnits="userSpaceOnUse">
      <path
         inkscape:connector-curvature="0"
         id="path893"
         d="M 0,0 H 595.276 V 841.89 H 0 Z" />
    </clipPath>
    <clipPath
       id="clipPath915"
       clipPathUnits="userSpaceOnUse">
      <path
         inkscape:connector-curvature="0"
         id="path913"
         d="M 0,0 H 595.276 V 841.89 H 0 Z" />
    </clipPath>
    <clipPath
       id="clipPath933"
       clipPathUnits="userSpaceOnUse">
      <path
         inkscape:connector-curvature="0"
         id="path931"
         d="M 0,0 H 595.276 V 841.89 H 0 Z" />
    </clipPath>
    <clipPath
       id="clipPath949"
       clipPathUnits="userSpaceOnUse">
      <path
         inkscape:connector-curvature="0"
         id="path947"
         d="M 0,0 H 595.276 V 841.89 H 0 Z" />
    </clipPath>
    <clipPath
       id="clipPath969"
       clipPathUnits="userSpaceOnUse">
      <path
         inkscape:connector-curvature="0"
         id="path967"
         d="M 0,0 H 595.276 V 841.89 H 0 Z" />
    </clipPath>
  </defs>
  <sodipodi:namedview
     id="base"
     pagecolor="#ffffff"
     bordercolor="#666666"
     borderopacity="1.0"
     inkscape:pageopacity="0.0"
     inkscape:pageshadow="2"
     inkscape:zoom="3.8173215"
     inkscape:cx="117.49054"
     inkscape:cy="11.585939"
     inkscape:document-units="mm"
     inkscape:current-layer="layer1"
     showgrid="false"
     fit-margin-top="0"
     fit-margin-left="0"
     fit-margin-right="0"
     fit-margin-bottom="0"
     units="px"
     inkscape:window-width="1280"
     inkscape:window-height="744"
     inkscape:window-x="-4"
     inkscape:window-y="-4"
     inkscape:window-maximized="1" />
  <metadata
     id="metadata1253">
    <rdf:RDF>
      <cc:Work
         rdf:about="">
        <dc:format>image/svg+xml</dc:format>
        <dc:type
           rdf:resource="http://purl.org/dc/dcmitype/StillImage" />
        <dc:title></dc:title>
      </cc:Work>
    </rdf:RDF>
  </metadata>
  <g
     inkscape:label="Layer 1"
     inkscape:groupmode="layer"
     id="layer1"
     transform="translate(18.612826,-145.50337)">
    <g
       id="g1550"
       transform="translate(0.13229179,-0.13228883)">
      <path
         d="M -4.4059881,149.76237 H -5.109427 l -0.4723694,-1.55222 h -0.00847 l 0.026458,1.55222 H -6.055577 v -1.94028 h 0.7348361 l 0.4360334,1.49225 h 0.010583 l -0.026106,-1.49225 h 0.4942417 z m -2.1794611,-0.53799 c 0,0.037 -0.00317,0.10972 -0.00494,0.12947 -0.030692,0.3228 -0.2607027,0.48684 -0.684036,0.48684 -0.4272139,0 -0.6579306,-0.16404 -0.6872111,-0.48684 -0.00212,-0.0197 -0.0067,-0.0924 -0.00529,-0.12876 v -1.403 h 0.5065889 v 1.44674 c 0,0.0321 7.055e-4,0.0561 0.00423,0.0727 0.00635,0.0332 0.0381,0.13864 0.1816806,0.13864 0.1411111,0 0.1732138,-0.10548 0.1806222,-0.13794 0.00247,-0.0173 0.00494,-0.042 0.00494,-0.0734 v -1.44674 h 0.5034138 z m -1.8323277,0.17816 c -0.053269,0.37959 -0.4258028,0.44555 -0.688975,0.44555 -0.4356805,0 -0.7066139,-0.18626 -0.7066139,-0.56585 v -0.15522 h 0.530225 l 0.00106,0.19403 c 0,0.10548 0.072319,0.16898 0.1869722,0.16898 0.1016,0 0.1608666,-0.042 0.1827389,-0.12559 0.00882,-0.0395 0.013758,-0.0956 -0.00388,-0.13935 -0.098072,-0.24342 -0.7859889,-0.36301 -0.8692444,-0.75918 -0.018697,-0.0893 -0.020108,-0.1651 -0.00388,-0.2607 0.057856,-0.35913 0.4018139,-0.43321 0.6780389,-0.43321 0.2483556,0 0.4296833,0.0536 0.5372805,0.16228 0.081492,0.0804 0.1217084,0.19085 0.1217084,0.32878 v 0.14182 h -0.4960056 v -0.12453 c 0,-0.10724 -0.064911,-0.16933 -0.1725083,-0.16933 -0.093133,0 -0.1506361,0.042 -0.168275,0.12559 -0.00529,0.0173 -0.00917,0.0575 0.00176,0.0981 0.052564,0.21872 0.7874,0.34995 0.8685389,0.75036 0.010231,0.0501 0.024342,0.1591 0.00106,0.3175 m -2.3576137,0.37959 -0.01305,-1.7018 h -0.0078 l -0.316794,1.7018 h -0.505531 l -0.315736,-1.7018 h -0.0088 l -0.012,1.7018 h -0.499886 l 0.04269,-1.96004 h 0.806803 l 0.233892,1.45662 h 0.01235 l 0.234244,-1.45662 h 0.806098 l 0.04198,1.96004 z m -2.590447,0 -0.255764,-1.73532 h -0.0088 l -0.261409,1.73532 h -0.539397 l 0.362303,-1.96004 h 0.879828 l 0.358069,1.96004 z m 13.20588274,-2.55412 c -0.25117777,-1.4425 -4.58328874,-1.8923 -9.67669424,-1.00506 -2.1378325,0.37289 -4.0703495,0.92075 -5.5735355,1.53882 0.232128,0.007 0.402872,0.0596 0.506942,0.16263 0.08079,0.0818 0.122766,0.19332 0.122766,0.33373 v 0.14181 h -0.499886 v -0.12559 c 0,-0.10477 -0.0635,-0.17074 -0.174978,-0.17074 -0.09313,0 -0.152047,0.043 -0.170039,0.12559 -0.0053,0.0229 -0.0071,0.0635 0.0021,0.10054 0.05397,0.21872 0.794103,0.35313 0.875242,0.75671 0.01164,0.0504 0.02575,0.16263 0.0025,0.32103 -0.04692,0.32596 -0.331964,0.45226 -0.69603,0.45226 -0.507295,0 -0.71367,-0.24166 -0.71367,-0.57256 l 0.0018,-0.15699 h 0.533753 l 0.0021,0.19474 c 0,0.11077 0.07796,0.1718 0.186972,0.1718 0.102658,0 0.162983,-0.042 0.184855,-0.12735 0.0092,-0.0395 0.01482,-0.0963 -0.0046,-0.14006 -0.09878,-0.24765 -0.790222,-0.36477 -0.875947,-0.76658 -0.01976,-0.091 -0.02046,-0.16757 -0.0049,-0.26423 0.0078,-0.0529 0.0254,-0.0981 0.04339,-0.13865 -1.668286,0.78 -2.643011,1.63725 -2.513542,2.3802 0.25012,1.44074 4.582936,1.89053 9.6745774,1.00435 2.2380222,-0.39052 4.2509721,-0.97472 5.7834387,-1.62771 -0.022578,0.002 -0.043744,0.004 -0.067733,0.004 -0.3474861,0 -0.6589889,-0.12947 -0.6907389,-0.48613 -0.00564,-0.0653 -0.00741,-0.0924 -0.00741,-0.12947 v -0.8195 c 0,-0.0349 0.00494,-0.0967 0.00847,-0.12877 0.041628,-0.34431 0.314325,-0.48613 0.6914444,-0.48613 0.2921,0 0.6501694,0.0843 0.6882694,0.48684 0.00564,0.0494 0.00564,0.10407 0.00564,0.12206 v 0.0769 h -0.5041195 v -0.11465 c 0,-0.004 -0.00176,-0.0462 -0.0067,-0.0727 -0.00811,-0.0413 -0.04445,-0.13688 -0.187325,-0.13688 -0.1432278,0 -0.1788584,0.0956 -0.1880306,0.13688 -0.00529,0.0222 -0.00811,0.0543 -0.00811,0.09 v 0.89041 c 0,0.0303 0.00141,0.0554 0.00564,0.0734 0.00176,0.0134 0.026458,0.13546 0.1922639,0.13546 0.1640416,0 0.1890888,-0.12206 0.1922638,-0.13546 0.00318,-0.0247 0.00423,-0.0536 0.00318,-0.0734 v -0.27552 h -0.1982611 v -0.29633 h 0.701675 v 0.5274 c 0,0.0363 0,0.0617 -0.00741,0.12947 -0.00741,0.0931 -0.037042,0.17251 -0.083961,0.23918 1.62559994,-0.77152 2.57174991,-1.61572 2.44439714,-2.34527"
         style="fill:#003f98;fill-opacity:1;fill-rule:nonzero;stroke:none;stroke-width:0.35277778"
         id="path817"
         inkscape:connector-curvature="0" />
      <path
         inkscape:connector-curvature="0"
         id="path819"
         style="fill:#003f98;fill-opacity:1;fill-rule:nonzero;stroke:none;stroke-width:0.35277778"
         d="m 4.0297785,149.2393 h 0.54716 v 2.6162 h -0.54716 z" />
      <path
         d="m 5.0415065,151.85521 v -2.6162 h 0.7366 l 0.6960305,1.81151 h 0.00882 v -1.81151 h 0.5104694 v 2.6162 H 6.2723481 l -0.7129638,-1.91206 h -0.00776 v 1.91206 z"
         style="fill:#003f98;fill-opacity:1;fill-rule:nonzero;stroke:none;stroke-width:0.35277778"
         id="path823"
         inkscape:connector-curvature="0" />
      <path
         d="m 8.1630252,151.89815 c -0.6780389,0 -0.8046861,-0.39864 -0.7747,-0.8509 H 7.934778 c 0,0.24977 0.011289,0.45967 0.3115028,0.45967 0.1845027,0 0.2755194,-0.11959 0.2755194,-0.29774 0,-0.47026 -1.1010194,-0.49883 -1.1010194,-1.27777 0,-0.40922 0.1950861,-0.73448 0.8614833,-0.73448 0.5330472,0 0.7962194,0.23883 0.7612944,0.78493 H 8.5105113 c 0,-0.19544 -0.034219,-0.3937 -0.2536472,-0.3937 -0.1774472,0 -0.282575,0.0967 -0.282575,0.2787 0,0.4953 1.1013722,0.45155 1.1013722,1.27458 0,0.67663 -0.4967111,0.75671 -0.9126361,0.75671"
         style="fill:#003f98;fill-opacity:1;fill-rule:nonzero;stroke:none;stroke-width:0.35277778"
         id="path835"
         inkscape:connector-curvature="0" />
      <path
         d="m 11.234732,149.23913 v 1.8542 c 0,0.39229 -0.220839,0.80469 -0.886531,0.80469 -0.6032495,0 -0.8918217,-0.31186 -0.8918217,-0.80469 v -1.8542 h 0.5471587 v 1.81927 c 0,0.32139 0.137936,0.44839 0.336197,0.44839 0.23883,0 0.348191,-0.15911 0.348191,-0.44839 v -1.81927 z"
         style="fill:#003f98;fill-opacity:1;fill-rule:nonzero;stroke:none;stroke-width:0.35277778"
         id="path839"
         inkscape:connector-curvature="0" />
      <path
         d="m 12.216336,150.7717 h 0.141111 c 0.420511,0 0.390878,0.26423 0.390878,0.57609 0,0.17003 -0.01446,0.34748 0.05856,0.50729 h 0.536928 c -0.05045,-0.10936 -0.06279,-0.60149 -0.06279,-0.7687 0,-0.47061 -0.355247,-0.49883 -0.474133,-0.51365 v -0.007 c 0.354189,-0.0589 0.486481,-0.30868 0.486481,-0.6417 0,-0.44627 -0.239537,-0.68475 -0.613128,-0.68475 h -1.011061 v 2.61585 h 0.547158 z m 0,-1.13101 H 12.4594 c 0.173567,0 0.2794,0.0949 0.2794,0.34467 0,0.16686 -0.06244,0.38453 -0.2794,0.38453 h -0.243064 z"
         style="fill:#003f98;fill-opacity:1;fill-rule:nonzero;stroke:none;stroke-width:0.35277778"
         id="path843"
         inkscape:connector-curvature="0" />
      <path
         d="m 14.035171,151.85521 0.148167,-0.58067 h 0.747183 l 0.143228,0.58067 h 0.576086 l -0.708025,-2.6162 h -0.722489 l -0.725311,2.6162 z m 0.778933,-0.98213 h -0.521758 l 0.250472,-1.13066 h 0.0063 z"
         style="fill:#003f98;fill-opacity:1;fill-rule:nonzero;stroke:none;stroke-width:0.35277778"
         id="path847"
         inkscape:connector-curvature="0" />
      <path
         d="m 15.911384,151.85521 v -2.6162 h 0.739422 l 0.695325,1.81151 h 0.0074 v -1.81151 h 0.508705 v 2.6162 h -0.720019 l -0.712259,-1.91206 h -0.0074 v 1.91206 z"
         style="fill:#003f98;fill-opacity:1;fill-rule:nonzero;stroke:none;stroke-width:0.35277778"
         id="path851"
         inkscape:connector-curvature="0" />
      <path
         d="m 18.29886,150.54719 c 0,-0.69144 0,-1.35008 0.901347,-1.35008 0.559153,0 0.783167,0.30656 0.762,0.86854 h -0.535516 c 0,-0.34784 -0.06244,-0.47731 -0.226484,-0.47731 -0.307622,0 -0.347486,0.28963 -0.347486,0.95885 0,0.66922 0.03986,0.95991 0.347486,0.95991 0.255411,0 0.243417,-0.32597 0.250472,-0.53234 h 0.538339 c 0,0.69885 -0.277989,0.92322 -0.788811,0.92322 -0.901347,0 -0.901347,-0.66711 -0.901347,-1.35079"
         style="fill:#003f98;fill-opacity:1;fill-rule:nonzero;stroke:none;stroke-width:0.35277778"
         id="path863"
         inkscape:connector-curvature="0" />
      <path
         d="m 20.305135,151.85521 v -2.6162 h 1.427339 v 0.40146 h -0.879828 v 0.64558 h 0.810331 v 0.40217 h -0.810331 v 0.76518 h 0.908756 v 0.40181 z"
         style="fill:#003f98;fill-opacity:1;fill-rule:nonzero;stroke:none;stroke-width:0.35277778"
         id="path867"
         inkscape:connector-curvature="0" />
      <path
         d="m 4.7770642,148.48161 c -0.6780389,0 -0.8050389,-0.39829 -0.7761111,-0.8509 h 0.5471583 c 0,0.25012 0.010936,0.46002 0.3118556,0.46002 0.1830916,0 0.2755194,-0.11959 0.2755194,-0.29774 0,-0.4699 -1.101725,-0.49883 -1.101725,-1.27812 0,-0.40922 0.1957917,-0.73448 0.8632472,-0.73448 0.5312834,0 0.7965722,0.23918 0.7591778,0.78528 H 5.1241975 c 0,-0.19543 -0.032456,-0.39405 -0.2547055,-0.39405 -0.1767417,0 -0.2822222,0.0967 -0.2822222,0.27905 0,0.49565 1.1020777,0.45191 1.1020777,1.27423 0,0.67663 -0.4967111,0.75671 -0.9122833,0.75671"
         style="fill:#003f98;fill-opacity:1;fill-rule:nonzero;stroke:none;stroke-width:0.35277778"
         id="path879"
         inkscape:connector-curvature="0" />
      <path
         d="m 6.4205155,148.43862 0.1485194,-0.58032 h 0.7468306 l 0.1449916,0.58032 H 8.0369432 L 7.3257433,145.82313 H 6.6060766 l -0.7246055,2.61549 z M 7.199096,147.45649 H 6.6776905 l 0.2504722,-1.13066 h 0.00635 z"
         style="fill:#003f98;fill-opacity:1;fill-rule:nonzero;stroke:none;stroke-width:0.35277778"
         id="path883"
         inkscape:connector-curvature="0" />
      <path
         d="m 8.2823365,148.43862 v -2.61549 h 0.8805333 l 0.4099278,1.77835 h 0.00635 l 0.4353274,-1.77835 h 0.851606 v 2.61549 h -0.532342 v -2.01789 h -0.0085 l -0.5030615,2.01789 H 9.3008059 l -0.4783666,-2.01789 h -0.00706 v 2.01789 z"
         style="fill:#003f98;fill-opacity:1;fill-rule:nonzero;stroke:none;stroke-width:0.35277778"
         id="path887"
         inkscape:connector-curvature="0" />
      <path
         d="m 12.020297,148.48161 c -0.676981,0 -0.804333,-0.39829 -0.775406,-0.8509 h 0.548217 c 0,0.25012 0.01058,0.46002 0.31115,0.46002 0.18415,0 0.27552,-0.11959 0.27552,-0.29774 0,-0.4699 -1.102078,-0.49883 -1.102078,-1.27812 0,-0.40922 0.196497,-0.73448 0.8636,-0.73448 0.531989,0 0.796219,0.23918 0.759883,0.78528 h -0.532694 c 0,-0.19543 -0.03246,-0.39405 -0.253295,-0.39405 -0.177447,0 -0.282928,0.0967 -0.282928,0.27905 0,0.49565 1.102078,0.45191 1.102078,1.27423 0,0.67663 -0.496358,0.75671 -0.914047,0.75671"
         style="fill:#003f98;fill-opacity:1;fill-rule:nonzero;stroke:none;stroke-width:0.35277778"
         id="path899"
         inkscape:connector-curvature="0" />
      <path
         d="m 15.092745,145.82304 v 1.8542 c 0,0.39229 -0.220839,0.80433 -0.887236,0.80433 -0.601839,0 -0.892881,-0.3115 -0.892881,-0.80433 v -1.8542 h 0.547511 v 1.81927 c 0,0.32139 0.139348,0.44839 0.337256,0.44839 0.239536,0 0.348192,-0.15911 0.348192,-0.44839 v -1.81927 z"
         style="fill:#003f98;fill-opacity:1;fill-rule:nonzero;stroke:none;stroke-width:0.35277778"
         id="path903"
         inkscape:connector-curvature="0" />
      <path
         d="m 15.540915,148.43862 v -2.61549 h 0.740481 l 0.693913,1.8108 h 0.0078 v -1.8108 h 0.510116 v 2.61549 h -0.719666 l -0.71367,-1.91206 h -0.0074 v 1.91206 z"
         style="fill:#003f98;fill-opacity:1;fill-rule:nonzero;stroke:none;stroke-width:0.35277778"
         id="path907"
         inkscape:connector-curvature="0" />
      <path
         d="m 19.150183,146.62723 c 0.0025,-0.24271 -0.03669,-0.45544 -0.327025,-0.45544 -0.339725,0 -0.339725,0.45932 -0.339725,0.96626 0,0.8188 0.07867,0.96309 0.390525,0.96309 0.09066,0 0.188383,-0.0198 0.272697,-0.0504 v -0.57926 h -0.298097 v -0.40288 h 0.844903 v 1.32645 c -0.149225,0.0289 -0.52317,0.0864 -0.740481,0.0864 -0.919339,0 -1.023761,-0.38029 -1.023761,-1.37301 0,-0.65793 0.0321,-1.32786 0.926042,-1.32786 0.536928,0 0.86995,0.29986 0.8382,0.84667 z"
         style="fill:#003f98;fill-opacity:1;fill-rule:nonzero;stroke:none;stroke-width:0.35277778"
         id="path919"
         inkscape:connector-curvature="0" />
      <path
         d="m 20.959555,148.43862 v -2.61549 h 1.359253 v 0.40146 h -0.811742 v 0.66992 h 0.776464 v 0.40217 h -0.776464 v 1.14194 z"
         style="fill:#003f98;fill-opacity:1;fill-rule:nonzero;stroke:none;stroke-width:0.35277778"
         id="path923"
         inkscape:connector-curvature="0" />
      <path
         inkscape:connector-curvature="0"
         id="path925"
         style="fill:#003f98;fill-opacity:1;fill-rule:nonzero;stroke:none;stroke-width:0.35277778"
         d="m 22.579887,145.823 h 0.54751 v 2.6162 h -0.54751 z" />
      <path
         d="m 24.122692,147.35551 h 0.140406 c 0.421216,0 0.391936,0.26423 0.391936,0.57609 0,0.16968 -0.01446,0.34748 0.05927,0.50694 h 0.535164 c -0.05045,-0.10866 -0.06103,-0.60149 -0.06103,-0.76835 0,-0.47061 -0.356306,-0.49918 -0.474134,-0.514 v -0.007 c 0.353836,-0.0593 0.484717,-0.30833 0.484717,-0.6417 0,-0.44627 -0.239889,-0.68475 -0.612422,-0.68475 h -1.011414 v 2.6155 h 0.547511 z m 0,-1.13101 h 0.242358 c 0.173567,0 0.279753,0.0949 0.279753,0.34432 0,0.16721 -0.06209,0.38452 -0.279753,0.38452 h -0.242358 z"
         style="fill:#003f98;fill-opacity:1;fill-rule:nonzero;stroke:none;stroke-width:0.35277778"
         id="path937"
         inkscape:connector-curvature="0" />
      <path
         d="m 25.600823,148.43862 v -2.61549 h 1.427339 v 0.40146 H 26.14657 v 0.64523 h 0.812095 v 0.40181 H 26.14657 v 0.76553 h 0.91052 v 0.40146 z"
         style="fill:#003f98;fill-opacity:1;fill-rule:nonzero;stroke:none;stroke-width:0.35277778"
         id="path941"
         inkscape:connector-curvature="0" />
      <path
         d="m 28.946363,146.68918 c -0.09278,-0.10936 -0.1905,-0.22789 -0.1905,-0.37712 0,-0.12277 0.111831,-0.20637 0.228247,-0.20637 0.141111,0 0.224367,0.0875 0.224367,0.22472 0,0.16333 -0.134056,0.27904 -0.262114,0.35877 m 0.907344,1.74942 h 0.535164 l -0.394052,-0.53657 c 0.176036,-0.28258 0.176036,-0.62301 0.176036,-0.89394 h -0.44062 c 0,0.25365 -0.01023,0.35031 -0.05856,0.52105 l -0.407811,-0.53551 c 0.20955,-0.1898 0.4445,-0.36266 0.4445,-0.70344 0,-0.39476 -0.413456,-0.50977 -0.662869,-0.50977 -0.445206,0 -0.789517,0.21661 -0.789517,0.50624 0,0.27164 0.153458,0.47837 0.289278,0.65581 -0.271992,0.17745 -0.514703,0.39829 -0.514703,0.74613 0,0.51153 0.334433,0.79304 0.935214,0.79304 0.278341,0 0.522111,-0.0462 0.727428,-0.25012 z m -0.477661,-0.5214 c -0.09525,0.12312 -0.243416,0.17357 -0.399697,0.17357 -0.249061,0 -0.39758,-0.15205 -0.39758,-0.40217 0,-0.17392 0.133702,-0.32279 0.263877,-0.42333 z"
         style="fill:#003f98;fill-opacity:1;fill-rule:nonzero;stroke:none;stroke-width:0.35277778"
         id="path953"
         inkscape:connector-curvature="0" />
      <path
         d="m 31.42544,148.43862 v -2.61549 h 0.880181 l 0.408163,1.77835 h 0.0074 l 0.43568,-1.77835 h 0.851253 v 2.61549 h -0.533753 v -2.01789 h -0.0078 l -0.502003,2.01789 h -0.521052 l -0.479778,-2.01789 h -0.006 v 2.01789 z"
         style="fill:#003f98;fill-opacity:1;fill-rule:nonzero;stroke:none;stroke-width:0.35277778"
         id="path957"
         inkscape:connector-curvature="0" />
      <path
         d="m 34.792871,148.43862 0.148519,-0.58032 h 0.746831 l 0.145344,0.58032 h 0.574323 l -0.708731,-2.61549 h -0.720725 l -0.725311,2.61549 z m 0.779639,-0.98213 h -0.522111 l 0.250119,-1.13066 h 0.006 z"
         style="fill:#003f98;fill-opacity:1;fill-rule:nonzero;stroke:none;stroke-width:0.35277778"
         id="path961"
         inkscape:connector-curvature="0" />
      <path
         d="m 37.201822,147.35551 h 0.141817 c 0.421922,0 0.39123,0.26423 0.39123,0.57609 0,0.16968 -0.01517,0.34748 0.05786,0.50694 H 38.3293 c -0.05221,-0.10866 -0.06209,-0.60149 -0.06209,-0.76835 0,-0.47061 -0.354895,-0.49918 -0.474486,-0.514 v -0.007 c 0.355247,-0.0593 0.484364,-0.30833 0.484364,-0.6417 0,-0.44627 -0.238831,-0.68475 -0.612775,-0.68475 h -1.008592 v 2.6155 h 0.5461 z m 0,-1.13101 h 0.243417 c 0.172508,0 0.278341,0.0949 0.278341,0.34432 0,0.16721 -0.06103,0.38452 -0.278341,0.38452 h -0.243417 z"
         style="fill:#003f98;fill-opacity:1;fill-rule:nonzero;stroke:none;stroke-width:0.35277778"
         id="path973"
         inkscape:connector-curvature="0" />
      <path
         inkscape:connector-curvature="0"
         id="path975"
         style="fill:#003f98;fill-opacity:1;fill-rule:nonzero;stroke:none;stroke-width:0.35277778"
         d="m 38.679958,145.823 h 0.547161 v 2.6162 h -0.547161 z" />
      <path
         d="m 39.690441,148.43862 v -2.61549 h 0.739775 l 0.693208,1.8108 h 0.0085 v -1.8108 h 0.510822 v 2.61549 h -0.720725 l -0.713669,-1.91206 h -0.0078 v 1.91206 z"
         style="fill:#003f98;fill-opacity:1;fill-rule:nonzero;stroke:none;stroke-width:0.35277778"
         id="path979"
         inkscape:connector-curvature="0" />
      <path
         d="m 42.103044,148.43862 v -2.61549 h 1.426633 v 0.40146 h -0.880886 v 0.64523 h 0.811036 v 0.40181 h -0.811036 v 0.76553 h 0.91052 v 0.40146 z"
         style="fill:#003f98;fill-opacity:1;fill-rule:nonzero;stroke:none;stroke-width:0.35277778"
         id="path983"
         inkscape:connector-curvature="0" />
    </g>
  </g>
</svg>
